<svg xmlns="http://www.w3.org/2000/svg" viewBox="0 0 100 100" width="1024" height="1024">
  <defs>
    <clipPath id="sq">
      <path d="M50 2 C13 2 2 13 2 50 C2 87 13 98 50 98 C87 98 98 87 98 50 C98 13 87 2 50 2 Z"></path>
    </clipPath>
  </defs>
  <g clip-path="url(#sq)">
    
    <rect width="100" height="100" fill="#2b2f4c"></rect>

    
    
    <g transform="translate(19,10) scale(0.65)" fill="none" stroke="#3bb878" stroke-width="7" stroke-linecap="round">
      <path d="M20 8 V32 M8 20 H32"></path>
    </g>
    
    <g transform="translate(55,10) scale(0.65)" fill="none" stroke="#bf5cf0" stroke-width="7" stroke-linecap="round">
      <path d="M11 11 L29 29 M29 11 L11 29"></path>
    </g>
    
    <g transform="translate(19,40) scale(0.65)" fill="none" stroke="#ee8a1c" stroke-width="7" stroke-linecap="round">
      <path d="M8 20 H32"></path>
    </g>
    
    <g transform="translate(55,40) scale(0.65)">
      <circle cx="20" cy="10" r="3.4" fill="#4aa6ea"></circle>
      <path d="M8 20 H32" fill="none" stroke="#4aa6ea" stroke-width="7" stroke-linecap="round"></path>
      <circle cx="20" cy="30" r="3.4" fill="#4aa6ea"></circle>
    </g>

    
    <g transform="translate(7,66) scale(0.86)">
      <path d="M43 48 L36 22" stroke="#5cb789" stroke-width="5" fill="none" stroke-linecap="round"></path>
      <path d="M57 48 L64 22" stroke="#5cb789" stroke-width="5" fill="none" stroke-linecap="round"></path>
      <circle cx="35" cy="15" r="7" fill="#fff"></circle>
      <circle cx="35" cy="15" r="3.2" fill="#15181f"></circle>
      <circle cx="65" cy="15" r="7" fill="#fff"></circle>
      <circle cx="65" cy="15" r="3.2" fill="#15181f"></circle>
      <path d="M50 46 L50 26" stroke="#5cb789" stroke-width="4" stroke-linecap="round"></path>
      <circle cx="50" cy="22" r="4.5" fill="#f0be2c"></circle>
      <ellipse cx="50" cy="62" rx="32" ry="34" fill="#6bc397"></ellipse>
      <circle cx="50" cy="58" r="17" fill="#8fd8ac"></circle>
      <circle cx="50" cy="58" r="13.5" fill="#12182b"></circle>
      <circle cx="49" cy="59" r="6.5" fill="#5c9be8"></circle>
      <circle cx="46.5" cy="56" r="2.4" fill="#fff"></circle>
      <path d="M38 78 Q50 76 62 78 Q60 90 50 90 Q40 90 38 78 Z" fill="#1f4d39"></path>
    </g>
  </g>
</svg>